solid wall
facet normal 0 0 1
outer loop
vertex  -0.1 -0.1 0.2
vertex  0.1 -0.1 0.2
vertex  -0.1 0.1 0.2
endloop
endfacet
facet normal 0 0 1
outer loop
vertex  0.1 0.1 0.2
vertex  -0.1 0.1 0.2
vertex  0.1 -0.1 0.2
endloop
endfacet
facet normal 1 0 0
outer loop
vertex  0.1 -0.1 0.2
vertex  0.1 -0.1 0
vertex  0.1 0.1 0.2
endloop
endfacet
facet normal 1 0 0
outer loop
vertex  0.1 0.1 0
vertex  0.1 0.1 0.2
vertex  0.1 -0.1 0
endloop
endfacet
facet normal 0 0 -1
outer loop
vertex  0.1 -0.1 0
vertex  -0.1 -0.1 0
vertex  0.1 0.1 0
endloop
endfacet
facet normal 0 0 -1
outer loop
vertex  -0.1 0.1 0
vertex  0.1 0.1 0
vertex  -0.1 -0.1 0
endloop
endfacet
facet normal -1 0 0
outer loop
vertex  -0.1 -0.1 0
vertex  -0.1 -0.1 0.2
vertex  -0.1 0.1 0
endloop
endfacet
facet normal -1 0 0
outer loop
vertex  -0.1 0.1 0.2
vertex  -0.1 0.1 0
vertex  -0.1 -0.1 0.2
endloop
endfacet
facet normal 0 1 0
outer loop
vertex  -0.1 0.1 0.2
vertex  0.1 0.1 0.2
vertex  -0.1 0.1 0
endloop
endfacet
facet normal 0 1 0
outer loop
vertex  0.1 0.1 0
vertex  -0.1 0.1 0
vertex  0.1 0.1 0.2
endloop
endfacet
facet normal 0 -1 0
outer loop
vertex  0.1 -0.1 0.2
vertex  -0.1 -0.1 0.2
vertex  0.1 -0.1 0
endloop
endfacet
facet normal 0 -1 0
outer loop
vertex  -0.1 -0.1 0
vertex  0.1 -0.1 0
vertex  -0.1 -0.1 0.2
endloop
endfacet
facet normal 0 0 1
outer loop
vertex  -0.5 -0.1 0.2
vertex  -0.3 -0.1 0.2
vertex  -0.5 0.1 0.2
endloop
endfacet
facet normal 0 0 1
outer loop
vertex  -0.3 0.1 0.2
vertex  -0.5 0.1 0.2
vertex  -0.3 -0.1 0.2
endloop
endfacet
facet normal 1 0 0
outer loop
vertex  -0.3 -0.1 0.2
vertex  -0.3 -0.1 0
vertex  -0.3 0.1 0.2
endloop
endfacet
facet normal 1 0 0
outer loop
vertex  -0.3 0.1 0
vertex  -0.3 0.1 0.2
vertex  -0.3 -0.1 0
endloop
endfacet
facet normal 0 0 -1
outer loop
vertex  -0.3 -0.1 0
vertex  -0.5 -0.1 0
vertex  -0.3 0.1 0
endloop
endfacet
facet normal 0 0 -1
outer loop
vertex  -0.5 0.1 0
vertex  -0.3 0.1 0
vertex  -0.5 -0.1 0
endloop
endfacet
facet normal -1 0 0
outer loop
vertex  -0.5 -0.1 0
vertex  -0.5 -0.1 0.2
vertex  -0.5 0.1 0
endloop
endfacet
facet normal -1 0 0
outer loop
vertex  -0.5 0.1 0.2
vertex  -0.5 0.1 0
vertex  -0.5 -0.1 0.2
endloop
endfacet
facet normal 0 1 0
outer loop
vertex  -0.5 0.1 0.2
vertex  -0.3 0.1 0.2
vertex  -0.5 0.1 0
endloop
endfacet
facet normal 0 1 0
outer loop
vertex  -0.3 0.1 0
vertex  -0.5 0.1 0
vertex  -0.3 0.1 0.2
endloop
endfacet
facet normal 0 -1 0
outer loop
vertex  -0.3 -0.1 0.2
vertex  -0.5 -0.1 0.2
vertex  -0.3 -0.1 0
endloop
endfacet
facet normal 0 -1 0
outer loop
vertex  -0.5 -0.1 0
vertex  -0.3 -0.1 0
vertex  -0.5 -0.1 0.2
endloop
endfacet
facet normal 0 0 1
outer loop
vertex  0.3 -0.1 0.2
vertex  0.5 -0.1 0.2
vertex  0.3 0.1 0.2
endloop
endfacet
facet normal 0 0 1
outer loop
vertex  0.5 0.1 0.2
vertex  0.3 0.1 0.2
vertex  0.5 -0.1 0.2
endloop
endfacet
facet normal 1 0 0
outer loop
vertex  0.5 -0.1 0.2
vertex  0.5 -0.1 0
vertex  0.5 0.1 0.2
endloop
endfacet
facet normal 1 0 0
outer loop
vertex  0.5 0.1 0
vertex  0.5 0.1 0.2
vertex  0.5 -0.1 0
endloop
endfacet
facet normal 0 0 -1
outer loop
vertex  0.5 -0.1 0
vertex  0.3 -0.1 0
vertex  0.5 0.1 0
endloop
endfacet
facet normal 0 0 -1
outer loop
vertex  0.3 0.1 0
vertex  0.5 0.1 0
vertex  0.3 -0.1 0
endloop
endfacet
facet normal -1 0 0
outer loop
vertex  0.3 -0.1 0
vertex  0.3 -0.1 0.2
vertex  0.3 0.1 0
endloop
endfacet
facet normal -1 0 0
outer loop
vertex  0.3 0.1 0.2
vertex  0.3 0.1 0
vertex  0.3 -0.1 0.2
endloop
endfacet
facet normal 0 1 0
outer loop
vertex  0.3 0.1 0.2
vertex  0.5 0.1 0.2
vertex  0.3 0.1 0
endloop
endfacet
facet normal 0 1 0
outer loop
vertex  0.5 0.1 0
vertex  0.3 0.1 0
vertex  0.5 0.1 0.2
endloop
endfacet
facet normal 0 -1 0
outer loop
vertex  0.5 -0.1 0.2
vertex  0.3 -0.1 0.2
vertex  0.5 -0.1 0
endloop
endfacet
facet normal 0 -1 0
outer loop
vertex  0.3 -0.1 0
vertex  0.5 -0.1 0
vertex  0.3 -0.1 0.2
endloop
endfacet
facet normal 0 0 1
outer loop
vertex  -0.1 0.3 0.2
vertex  0.1 0.3 0.2
vertex  -0.1 0.5 0.2
endloop
endfacet
facet normal 0 0 1
outer loop
vertex  0.1 0.5 0.2
vertex  -0.1 0.5 0.2
vertex  0.1 0.3 0.2
endloop
endfacet
facet normal 1 0 0
outer loop
vertex  0.1 0.3 0.2
vertex  0.1 0.3 0
vertex  0.1 0.5 0.2
endloop
endfacet
facet normal 1 0 0
outer loop
vertex  0.1 0.5 0
vertex  0.1 0.5 0.2
vertex  0.1 0.3 0
endloop
endfacet
facet normal 0 0 -1
outer loop
vertex  0.1 0.3 0
vertex  -0.1 0.3 0
vertex  0.1 0.5 0
endloop
endfacet
facet normal 0 0 -1
outer loop
vertex  -0.1 0.5 0
vertex  0.1 0.5 0
vertex  -0.1 0.3 0
endloop
endfacet
facet normal -1 0 0
outer loop
vertex  -0.1 0.3 0
vertex  -0.1 0.3 0.2
vertex  -0.1 0.5 0
endloop
endfacet
facet normal -1 0 0
outer loop
vertex  -0.1 0.5 0.2
vertex  -0.1 0.5 0
vertex  -0.1 0.3 0.2
endloop
endfacet
facet normal 0 1 0
outer loop
vertex  -0.1 0.5 0.2
vertex  0.1 0.5 0.2
vertex  -0.1 0.5 0
endloop
endfacet
facet normal 0 1 0
outer loop
vertex  0.1 0.5 0
vertex  -0.1 0.5 0
vertex  0.1 0.5 0.2
endloop
endfacet
facet normal 0 -1 0
outer loop
vertex  0.1 0.3 0.2
vertex  -0.1 0.3 0.2
vertex  0.1 0.3 0
endloop
endfacet
facet normal 0 -1 0
outer loop
vertex  -0.1 0.3 0
vertex  0.1 0.3 0
vertex  -0.1 0.3 0.2
endloop
endfacet
facet normal 0 0 1
outer loop
vertex  -0.5 0.3 0.2
vertex  -0.3 0.3 0.2
vertex  -0.5 0.5 0.2
endloop
endfacet
facet normal 0 0 1
outer loop
vertex  -0.3 0.5 0.2
vertex  -0.5 0.5 0.2
vertex  -0.3 0.3 0.2
endloop
endfacet
facet normal 1 0 0
outer loop
vertex  -0.3 0.3 0.2
vertex  -0.3 0.3 0
vertex  -0.3 0.5 0.2
endloop
endfacet
facet normal 1 0 0
outer loop
vertex  -0.3 0.5 0
vertex  -0.3 0.5 0.2
vertex  -0.3 0.3 0
endloop
endfacet
facet normal 0 0 -1
outer loop
vertex  -0.3 0.3 0
vertex  -0.5 0.3 0
vertex  -0.3 0.5 0
endloop
endfacet
facet normal 0 0 -1
outer loop
vertex  -0.5 0.5 0
vertex  -0.3 0.5 0
vertex  -0.5 0.3 0
endloop
endfacet
facet normal -1 0 0
outer loop
vertex  -0.5 0.3 0
vertex  -0.5 0.3 0.2
vertex  -0.5 0.5 0
endloop
endfacet
facet normal -1 0 0
outer loop
vertex  -0.5 0.5 0.2
vertex  -0.5 0.5 0
vertex  -0.5 0.3 0.2
endloop
endfacet
facet normal 0 1 0
outer loop
vertex  -0.5 0.5 0.2
vertex  -0.3 0.5 0.2
vertex  -0.5 0.5 0
endloop
endfacet
facet normal 0 1 0
outer loop
vertex  -0.3 0.5 0
vertex  -0.5 0.5 0
vertex  -0.3 0.5 0.2
endloop
endfacet
facet normal 0 -1 0
outer loop
vertex  -0.3 0.3 0.2
vertex  -0.5 0.3 0.2
vertex  -0.3 0.3 0
endloop
endfacet
facet normal 0 -1 0
outer loop
vertex  -0.5 0.3 0
vertex  -0.3 0.3 0
vertex  -0.5 0.3 0.2
endloop
endfacet
facet normal 0 0 1
outer loop
vertex  0.3 0.3 0.2
vertex  0.5 0.3 0.2
vertex  0.3 0.5 0.2
endloop
endfacet
facet normal 0 0 1
outer loop
vertex  0.5 0.5 0.2
vertex  0.3 0.5 0.2
vertex  0.5 0.3 0.2
endloop
endfacet
facet normal 1 0 0
outer loop
vertex  0.5 0.3 0.2
vertex  0.5 0.3 0
vertex  0.5 0.5 0.2
endloop
endfacet
facet normal 1 0 0
outer loop
vertex  0.5 0.5 0
vertex  0.5 0.5 0.2
vertex  0.5 0.3 0
endloop
endfacet
facet normal 0 0 -1
outer loop
vertex  0.5 0.3 0
vertex  0.3 0.3 0
vertex  0.5 0.5 0
endloop
endfacet
facet normal 0 0 -1
outer loop
vertex  0.3 0.5 0
vertex  0.5 0.5 0
vertex  0.3 0.3 0
endloop
endfacet
facet normal -1 0 0
outer loop
vertex  0.3 0.3 0
vertex  0.3 0.3 0.2
vertex  0.3 0.5 0
endloop
endfacet
facet normal -1 0 0
outer loop
vertex  0.3 0.5 0.2
vertex  0.3 0.5 0
vertex  0.3 0.3 0.2
endloop
endfacet
facet normal 0 1 0
outer loop
vertex  0.3 0.5 0.2
vertex  0.5 0.5 0.2
vertex  0.3 0.5 0
endloop
endfacet
facet normal 0 1 0
outer loop
vertex  0.5 0.5 0
vertex  0.3 0.5 0
vertex  0.5 0.5 0.2
endloop
endfacet
facet normal 0 -1 0
outer loop
vertex  0.5 0.3 0.2
vertex  0.3 0.3 0.2
vertex  0.5 0.3 0
endloop
endfacet
facet normal 0 -1 0
outer loop
vertex  0.3 0.3 0
vertex  0.5 0.3 0
vertex  0.3 0.3 0.2
endloop
endfacet
facet normal 0 0 1
outer loop
vertex  -0.1 -0.5 0.2
vertex  0.1 -0.5 0.2
vertex  -0.1 -0.3 0.2
endloop
endfacet
facet normal 0 0 1
outer loop
vertex  0.1 -0.3 0.2
vertex  -0.1 -0.3 0.2
vertex  0.1 -0.5 0.2
endloop
endfacet
facet normal 1 0 0
outer loop
vertex  0.1 -0.5 0.2
vertex  0.1 -0.5 0
vertex  0.1 -0.3 0.2
endloop
endfacet
facet normal 1 0 0
outer loop
vertex  0.1 -0.3 0
vertex  0.1 -0.3 0.2
vertex  0.1 -0.5 0
endloop
endfacet
facet normal 0 0 -1
outer loop
vertex  0.1 -0.5 0
vertex  -0.1 -0.5 0
vertex  0.1 -0.3 0
endloop
endfacet
facet normal 0 0 -1
outer loop
vertex  -0.1 -0.3 0
vertex  0.1 -0.3 0
vertex  -0.1 -0.5 0
endloop
endfacet
facet normal -1 0 0
outer loop
vertex  -0.1 -0.5 0
vertex  -0.1 -0.5 0.2
vertex  -0.1 -0.3 0
endloop
endfacet
facet normal -1 0 0
outer loop
vertex  -0.1 -0.3 0.2
vertex  -0.1 -0.3 0
vertex  -0.1 -0.5 0.2
endloop
endfacet
facet normal 0 1 0
outer loop
vertex  -0.1 -0.3 0.2
vertex  0.1 -0.3 0.2
vertex  -0.1 -0.3 0
endloop
endfacet
facet normal 0 1 0
outer loop
vertex  0.1 -0.3 0
vertex  -0.1 -0.3 0
vertex  0.1 -0.3 0.2
endloop
endfacet
facet normal 0 -1 0
outer loop
vertex  0.1 -0.5 0.2
vertex  -0.1 -0.5 0.2
vertex  0.1 -0.5 0
endloop
endfacet
facet normal 0 -1 0
outer loop
vertex  -0.1 -0.5 0
vertex  0.1 -0.5 0
vertex  -0.1 -0.5 0.2
endloop
endfacet
facet normal 0 0 1
outer loop
vertex  -0.5 -0.5 0.2
vertex  -0.3 -0.5 0.2
vertex  -0.5 -0.3 0.2
endloop
endfacet
facet normal 0 0 1
outer loop
vertex  -0.3 -0.3 0.2
vertex  -0.5 -0.3 0.2
vertex  -0.3 -0.5 0.2
endloop
endfacet
facet normal 1 0 0
outer loop
vertex  -0.3 -0.5 0.2
vertex  -0.3 -0.5 0
vertex  -0.3 -0.3 0.2
endloop
endfacet
facet normal 1 0 0
outer loop
vertex  -0.3 -0.3 0
vertex  -0.3 -0.3 0.2
vertex  -0.3 -0.5 0
endloop
endfacet
facet normal 0 0 -1
outer loop
vertex  -0.3 -0.5 0
vertex  -0.5 -0.5 0
vertex  -0.3 -0.3 0
endloop
endfacet
facet normal 0 0 -1
outer loop
vertex  -0.5 -0.3 0
vertex  -0.3 -0.3 0
vertex  -0.5 -0.5 0
endloop
endfacet
facet normal -1 0 0
outer loop
vertex  -0.5 -0.5 0
vertex  -0.5 -0.5 0.2
vertex  -0.5 -0.3 0
endloop
endfacet
facet normal -1 0 0
outer loop
vertex  -0.5 -0.3 0.2
vertex  -0.5 -0.3 0
vertex  -0.5 -0.5 0.2
endloop
endfacet
facet normal 0 1 0
outer loop
vertex  -0.5 -0.3 0.2
vertex  -0.3 -0.3 0.2
vertex  -0.5 -0.3 0
endloop
endfacet
facet normal 0 1 0
outer loop
vertex  -0.3 -0.3 0
vertex  -0.5 -0.3 0
vertex  -0.3 -0.3 0.2
endloop
endfacet
facet normal 0 -1 0
outer loop
vertex  -0.3 -0.5 0.2
vertex  -0.5 -0.5 0.2
vertex  -0.3 -0.5 0
endloop
endfacet
facet normal 0 -1 0
outer loop
vertex  -0.5 -0.5 0
vertex  -0.3 -0.5 0
vertex  -0.5 -0.5 0.2
endloop
endfacet
facet normal 0 0 1
outer loop
vertex  0.3 -0.5 0.2
vertex  0.5 -0.5 0.2
vertex  0.3 -0.3 0.2
endloop
endfacet
facet normal 0 0 1
outer loop
vertex  0.5 -0.3 0.2
vertex  0.3 -0.3 0.2
vertex  0.5 -0.5 0.2
endloop
endfacet
facet normal 1 0 0
outer loop
vertex  0.5 -0.5 0.2
vertex  0.5 -0.5 0
vertex  0.5 -0.3 0.2
endloop
endfacet
facet normal 1 0 0
outer loop
vertex  0.5 -0.3 0
vertex  0.5 -0.3 0.2
vertex  0.5 -0.5 0
endloop
endfacet
facet normal 0 0 -1
outer loop
vertex  0.5 -0.5 0
vertex  0.3 -0.5 0
vertex  0.5 -0.3 0
endloop
endfacet
facet normal 0 0 -1
outer loop
vertex  0.3 -0.3 0
vertex  0.5 -0.3 0
vertex  0.3 -0.5 0
endloop
endfacet
facet normal -1 0 0
outer loop
vertex  0.3 -0.5 0
vertex  0.3 -0.5 0.2
vertex  0.3 -0.3 0
endloop
endfacet
facet normal -1 0 0
outer loop
vertex  0.3 -0.3 0.2
vertex  0.3 -0.3 0
vertex  0.3 -0.5 0.2
endloop
endfacet
facet normal 0 1 0
outer loop
vertex  0.3 -0.3 0.2
vertex  0.5 -0.3 0.2
vertex  0.3 -0.3 0
endloop
endfacet
facet normal 0 1 0
outer loop
vertex  0.5 -0.3 0
vertex  0.3 -0.3 0
vertex  0.5 -0.3 0.2
endloop
endfacet
facet normal 0 -1 0
outer loop
vertex  0.5 -0.5 0.2
vertex  0.3 -0.5 0.2
vertex  0.5 -0.5 0
endloop
endfacet
facet normal 0 -1 0
outer loop
vertex  0.3 -0.5 0
vertex  0.5 -0.5 0
vertex  0.3 -0.5 0.2
endloop
endfacet
endsolid
