solid wall
  facet normal 0 0 -1
    outer loop
       vertex -0.03125 -0.03125 0
       vertex 0.03125 0.03125 0
       vertex 0.03125 -0.03125 0
    endloop
  endfacet
  facet normal 0 0 -1
    outer loop
       vertex -0.03125 -0.03125 0
       vertex -0.03125 0.03125 0
       vertex 0.03125 0.03125 0
    endloop
  endfacet
  facet normal 0 0 1
    outer loop
       vertex -0.03125 -0.03125 0.25
       vertex 0.03125 -0.03125 0.25
       vertex 0.03125 0.03125 0.25
    endloop
  endfacet
  facet normal 0 0 1
    outer loop
       vertex -0.03125 -0.03125 0.25
       vertex 0.03125 0.03125 0.25
       vertex -0.03125 0.03125 0.25
    endloop
  endfacet
  facet normal -1 0 0
    outer loop
       vertex -0.03125 -0.03125 0
       vertex -0.03125 0.03125 0.25
       vertex -0.03125 0.03125 0
    endloop
  endfacet
  facet normal -1 0 0
    outer loop
       vertex -0.03125 -0.03125 0
       vertex -0.03125 -0.03125 0.25
       vertex -0.03125 0.03125 0.25
    endloop
  endfacet
  facet normal 1 0 0
    outer loop
       vertex 0.03125 -0.03125 0
       vertex 0.03125 0.03125 0
       vertex 0.03125 0.03125 0.25
    endloop
  endfacet
  facet normal 1 0 0
    outer loop
       vertex 0.03125 -0.03125 0
       vertex 0.03125 0.03125 0.25
       vertex 0.03125 -0.03125 0.25
    endloop
  endfacet
  facet normal 0 -1 0
    outer loop
       vertex -0.03125 -0.03125 0
       vertex 0.03125 -0.03125 0.25
       vertex -0.03125 -0.03125 0.25
    endloop
  endfacet
  facet normal 0 -1 0
    outer loop
       vertex -0.03125 -0.03125 0
       vertex 0.03125 -0.03125 0
       vertex 0.03125 -0.03125 0.25
    endloop
  endfacet
  facet normal 0 1 0
    outer loop
       vertex -0.03125 0.03125 0
       vertex -0.03125 0.03125 0.25
       vertex 0.03125 0.03125 0.25
    endloop
  endfacet
  facet normal 0 1 0
    outer loop
       vertex -0.03125 0.03125 0
       vertex 0.03125 0.03125 0.25
       vertex 0.03125 0.03125 0
    endloop
  endfacet
endsolid wall
